PathFileType	4	(X/Y/Z)	C:\Users\WrightLab\Desktop\Jo\P1.2Trial9.trc
DataRate	CameraRate	NumFrames	NumMarkers	Units	OrigDataRate	OrigDataStartFrame	OrigNumFrames
100.00	100.00	       25	19	mm	100.00	68	       538
Frame#	Time	Headset_Front			Headset_Back			Headset_Left			Headset_Right			Left_Shoulder			Right_Shoulder			Sternum			C7			Left Elbow			Right Elbow			Left Wrist			Right Wrist			Left ASIS			Right ASIS			S2			Left Knee			Right Knee			Left Ankle			Right Ankle			
		X1	Y1	Z1	X2	Y2	Z2	X3	Y3	Z3	X4	Y4	Z4	X5	Y5	Z5	X6	Y6	Z6	X7	Y7	Z7	X8	Y8	Z8	X9	Y9	Z9	X10	Y10	Z10	X11	Y11	Z11	X12	Y12	Z12	X13	Y13	Z13	X14	Y14	Z14	X15	Y15	Z15	X16	Y16	Z16	X17	Y17	Z17	X18	Y18	Z18	X19	Y19	Z19	

68	0.670	-549.94470	1402.94348	-1162.08289	-213.96840	1208.97974	-1232.91382				-453.33752	1374.01746	-1050.58154	-152.24130	926.15393	-1290.03491	-388.02231	868.03015	-1453.26807	-445.91357	1152.48413	-1139.70715										-90.31429	721.85583	-1174.65332				-328.77658	837.52533	-1124.05396	-601.32465	831.73059	-1190.68286				-230.96404	386.99777	-1175.42224	-614.22058	58.98681	-1235.77478	-76.38539	153.51068	-1439.56714	-626.05804	405.44040	-1205.05542	
69	0.680	-556.31860	1405.35681	-1155.86060	-220.51442	1210.90967	-1228.30212				-457.29828	1375.58386	-1043.60974	-160.05602	927.41370	-1285.07080	-395.00735	869.86047	-1446.22266	-451.32458	1153.83594	-1133.21558							-641.69202	1207.61597	-1286.47314	-99.66885	722.39380	-1171.67932				-333.71899	838.22955	-1122.24084	-607.26880	835.07239	-1177.73840				-238.26088	390.66495	-1151.28186	-614.34259	58.80516	-1236.30090	-85.41631	153.74283	-1426.22278	-630.12756	404.99960	-1202.19714	
70	0.690	-562.03955	1406.79468	-1148.92896	-226.77290	1212.42126	-1222.75378				-464.26273	1378.47839	-1037.10901	-167.21936	928.88837	-1279.73181	-401.97763	872.28143	-1440.85889	-457.39664	1154.96350	-1126.84033										-111.51535	723.95386	-1166.08704				-339.61618	840.93738	-1113.06006	-614.38281	836.54303	-1170.62744				-245.86981	392.33304	-1141.85681	-614.24628	57.48469	-1237.70544	-93.90504	154.41484	-1412.81702	-633.86572	405.59064	-1199.93359	
71	0.700	-567.65192	1408.20642	-1141.42761	-233.35428	1214.39758	-1218.38391				-469.53049	1380.27698	-1031.63318	-174.09521	930.27295	-1274.35352	-408.19452	874.53058	-1434.37561	-462.18555	1156.83130	-1120.32495							-655.28412	1211.70605	-1269.44263	-120.44369	723.25592	-1162.44055				-344.04593	841.69684	-1109.63257	-620.69055	837.25323	-1166.13794				-253.20061	395.21637	-1123.87378	-614.32556	57.39272	-1238.05530	-103.71954	153.28488	-1399.62219	-637.78644	403.72647	-1203.36987	
72	0.710	-573.26910	1409.51538	-1134.97632	-239.65500	1216.34656	-1213.94421				-475.32663	1381.57520	-1024.20459	-180.76680	931.70197	-1269.38403	-414.05548	876.91504	-1428.03271	-466.67346	1157.35522	-1114.52795							-661.08923	1214.31433	-1263.52368	-129.90558	723.68805	-1159.17810				-350.18411	841.57001	-1104.72791	-626.28064	839.60187	-1163.01477				-261.64941	396.34140	-1111.86768	-614.37762	57.35404	-1238.29163	-113.35528	152.63841	-1386.74817	-640.90137	402.77231	-1198.56812	
73	0.720	-578.95563	1410.43323	-1128.00793	-245.48476	1218.15039	-1209.80078				-480.90710	1382.31274	-1017.33453				-419.40817	878.75671	-1421.44104	-471.94586	1157.22644	-1107.79932							-805.30634	719.43420	-1266.76428	-140.04782	724.48157	-1152.93518				-354.21844	843.72113	-1099.44434	-631.12238	840.68170	-1154.57251				-268.74554	399.01947	-1096.09790	-614.39349	57.32282	-1238.35791	-123.89051	150.42926	-1371.52026	-643.80603	401.98859	-1198.05750	
74	0.730	-584.11194	1411.98425	-1120.74194	-251.10274	1219.11292	-1203.87524				-485.28271	1382.59229	-1010.47992				-424.26587	880.76361	-1415.28979	-476.76260	1158.51636	-1102.04260										-149.34129	725.78687	-1146.62537				-359.64450	844.76849	-1094.38708	-635.25348	841.72064	-1148.98657				-278.42215	401.28320	-1082.07007	-614.43939	57.28149	-1238.56396	-137.58783	148.71805	-1355.59302	-646.99976	400.51743	-1200.40674	
75	0.740	-590.28174	1413.48608	-1114.73352	-256.90674	1220.32190	-1198.77563				-490.64331	1383.52539	-1004.14136				-428.72284	882.76685	-1409.08350	-482.83459	1159.62891	-1095.90259										-158.47513	726.94702	-1139.26794				-364.96237	845.63470	-1091.12549	-639.69135	842.66589	-1142.97205				-288.32468	403.35635	-1067.47461	-615.06964	59.39974	-1237.00745	-150.10330	148.24968	-1339.89014	-649.70929	400.37207	-1197.18677	
76	0.750	-595.68420	1413.61487	-1107.59473	-262.65955	1220.63794	-1191.33618				-495.55673	1384.03162	-997.33411				-432.96515	884.14838	-1402.23352	-486.14700	1159.05896	-1089.03735										-167.18040	728.31763	-1132.67737				-369.18677	846.87421	-1085.69666	-643.47943	842.78253	-1137.27380				-299.34186	406.14279	-1053.50928	-615.00702	58.00245	-1238.47363	-164.92421	145.25450	-1323.09753	-652.14905	397.83734	-1196.53162	
77	0.760	-600.82495	1413.97986	-1099.93652	-268.19940	1222.29187	-1187.68896				-500.91876	1383.50623	-991.29041	-206.54088	936.65070	-1236.26489	-437.25092	885.35693	-1394.99634	-491.66565	1160.01587	-1083.15393										-175.72250	729.61737	-1125.78076				-374.52472	846.02893	-1081.75989	-648.25452	840.64227	-1134.71997	-834.91968	726.58466	-1218.62061	-309.53860	408.82773	-1040.12805	-615.36713	58.89937	-1238.27136	-178.45674	143.70406	-1306.77600	-656.13983	396.78418	-1196.94397	
78	0.770	-605.91876	1414.53699	-1093.22620	-273.21637	1222.71008	-1181.17773				-506.06805	1384.00293	-983.81543				-441.52771	886.43994	-1388.01868	-496.54410	1160.71838	-1077.38013										-182.29213	731.02783	-1118.27161				-378.27652	846.55200	-1073.53760	-651.40686	840.96381	-1129.32275				-319.66055	411.41077	-1026.21130	-616.09747	59.44877	-1236.59204	-194.05705	140.08679	-1288.53259	-657.94031	395.58594	-1197.16418	
79	0.780	-611.11334	1414.99268	-1086.24390	-278.56464	1224.32227	-1177.61230				-512.20984	1383.78699	-977.24475	-216.71976	938.02045	-1224.24988	-445.63672	887.74860	-1381.55200	-500.67221	1160.77893	-1071.31567										-189.68839	731.87714	-1111.72620	-848.91711	728.96283	-1193.23828	-381.82037	848.38422	-1068.43909	-652.09119	841.08081	-1121.25793				-330.74478	415.02267	-1013.45135	-616.08307	58.29089	-1237.60815	-208.64801	138.26431	-1273.07117	-660.48492	396.59991	-1191.64966	
80	0.790	-616.02179	1414.81519	-1078.96936	-284.05820	1225.55835	-1172.80432				-515.26416	1383.73840	-969.82855	-221.36407	938.56390	-1217.81628	-449.54541	888.28662	-1374.23181	-505.95908	1160.83850	-1064.22302										-197.35864	733.30115	-1103.80408	-855.32953	731.26367	-1182.97498	-386.43628	848.04321	-1062.28760	-654.48059	841.51404	-1116.18115				-341.00885	419.15579	-1000.68036	-616.65393	59.27812	-1235.99072	-225.36731	133.56204	-1254.13708	-662.19550	396.34799	-1189.35376	
81	0.800	-621.03882	1415.01025	-1071.47021	-289.06418	1225.46924	-1164.94556				-521.43286	1383.70178	-963.64594	-226.34775	939.19623	-1211.37134				-509.88654	1161.20056	-1058.06201										-202.89835	734.32922	-1095.07776	-862.60034	730.41748	-1166.70679	-390.35211	848.67334	-1055.83521	-657.03680	838.27155	-1116.03735				-354.09186	421.63028	-987.84528	-616.39777	57.49312	-1237.11743	-241.91214	130.06973	-1234.70703	-663.85901	393.27090	-1191.24878	
82	0.810	-625.76849	1415.16687	-1064.53687	-294.02408	1226.44507	-1159.86499				-524.97607	1382.42078	-955.49951							-513.74457	1161.40198	-1051.95911										-207.14293	735.25244	-1087.23364	-868.63641	732.22150	-1155.57031	-393.87167	849.64288	-1051.33105	-659.47528	839.35046	-1107.94019				-364.81314	425.40408	-974.04370	-616.31757	57.51600	-1236.74243	-257.29636	126.07381	-1216.11206	-666.54553	393.66870	-1187.19861	
83	0.820	-630.40778	1414.87524	-1057.27258	-298.32013	1226.80518	-1153.37085				-531.20599	1382.39258	-948.95496	-801.67108	977.75952	-1223.10437	-235.54338	942.00842	-1201.54187	-519.21680	1161.54138	-1045.01086										-213.45389	736.16016	-1077.69434	-875.45331	732.16626	-1141.08203	-398.58038	849.53088	-1045.55579	-661.54651	840.26123	-1101.19543				-375.47998	429.69971	-962.18829	-616.22986	57.55031	-1236.33496	-274.25333	121.26834	-1195.70007	-668.55402	393.32596	-1185.42627	
84	0.830	-635.07581	1414.34241	-1049.56213	-303.33823	1228.39929	-1149.70447				-534.18835	1381.23999	-941.49835							-523.18518	1161.37671	-1039.13928										-217.98393	736.69080	-1069.16699	-881.05878	733.42523	-1128.90161	-402.76041	849.99811	-1036.36023	-663.75006	840.85028	-1093.59509				-386.82681	433.28134	-952.34338	-616.71625	58.31629	-1233.22705	-290.93900	115.95818	-1174.95764	-670.19885	392.52444	-1181.71924	
85	0.840	-639.73682	1413.71753	-1041.91296	-307.80823	1228.67358	-1142.75269				-538.19586	1380.49438	-934.09558				-732.19171	1221.75208	-1154.02026	-527.33380	1161.17725	-1031.21069				-245.88103	942.60431	-1193.82202	-813.49408	977.03320	-1202.52136	-222.64980	738.15967	-1061.15344	-888.55890	732.72705	-1112.22302	-405.73590	850.09027	-1030.75037	-665.74915	842.60419	-1086.63159				-397.78265	437.17117	-939.31903	-616.74316	58.20208	-1233.31982	-306.96655	111.65086	-1153.55774	-672.53595	393.72144	-1175.40186	
86	0.850	-644.22711	1413.32361	-1034.41895	-312.62433	1228.48010	-1134.41577				-543.38977	1379.76624	-926.77313				-736.92346	1222.17285	-1146.79749	-530.99768	1160.37158	-1024.48047				-249.58588	939.60516	-1195.89136				-227.00192	738.63690	-1053.15027	-894.12170	733.04944	-1099.59607	-409.09576	850.14758	-1026.63135	-669.50568	843.36102	-1076.91675				-408.96179	441.00275	-927.93042	-616.66382	58.20162	-1232.94153	-323.54279	106.75389	-1131.29822	-673.72906	392.75723	-1172.97681	
87	0.860	-648.59760	1412.78687	-1026.66504	-317.39969	1229.29443	-1128.74548				-546.78082	1378.50659	-918.58923				-740.85370	1220.25061	-1138.13147	-535.13513	1159.92615	-1018.50873				-253.61913	941.12305	-1188.17993	-824.67480	974.76038	-1180.73608	-230.07358	739.32825	-1046.70459	-898.77271	733.08698	-1086.06055	-413.28238	849.06207	-1021.08887	-670.82800	845.07172	-1068.57361				-420.30817	444.96939	-917.57220	-616.58502	58.09982	-1232.53406	-339.88321	101.43465	-1106.96130	-675.55914	392.68512	-1169.36829	
88	0.870	-652.89087	1411.51990	-1018.39056							-551.19489	1377.76367	-911.42908				-745.16107	1219.34106	-1130.36145	-539.74994	1159.47168	-1010.38013				-257.01071	939.71704	-1182.11682	-829.87415	974.23389	-1171.74353	-234.51237	739.49164	-1040.88745	-903.99921	733.30634	-1072.68652	-416.64001	848.73663	-1014.75275	-673.70325	845.92798	-1061.32605				-432.24142	448.50372	-907.70807	-616.36981	58.21421	-1231.54297	-355.48764	97.78030	-1084.25586	-677.99481	391.62000	-1163.11731	
89	0.880	-657.18933	1410.73132	-1010.25928							-554.42407	1375.79224	-903.31622	-325.31351	1229.16968	-1113.93286	-749.22272	1218.64844	-1122.75024	-543.61340	1158.76526	-1003.01709				-260.65234	941.11066	-1174.67480				-238.29507	740.04102	-1033.83533	-909.47247	733.27808	-1059.18860	-420.56018	848.42072	-1006.83508	-677.10602	846.69867	-1052.08411				-444.09891	451.09982	-898.05939	-615.71185	56.78631	-1232.81311	-372.65109	92.35194	-1059.86877	-680.84003	390.92535	-1160.15161	
90	0.890	-661.35107	1409.69800	-1002.06885							-558.28241	1375.33569	-896.08667	-329.71872	1229.18176	-1106.31628	-753.21417	1217.55835	-1114.34937	-547.12415	1157.82385	-995.95508				-264.74442	940.80353	-1167.41589	-839.30817	972.06433	-1151.87329	-241.77328	740.15997	-1024.16479	-913.74799	732.95746	-1046.13171	-423.85107	848.75049	-999.30164	-694.61615	847.60461	-1027.30115				-456.15829	454.77155	-888.28326	-615.71246	56.58016	-1232.75049	-388.96201	88.19037	-1032.51611	-684.04871	387.91428	-1156.77222	
91	0.900	-665.66315	1408.88403	-993.68964							-562.51752	1373.89136	-887.73163	-333.72870	1229.35352	-1099.29553	-757.17126	1216.73938	-1106.79260	-550.72131	1156.47705	-988.62927				-268.22247	940.68567	-1159.23022	-843.48462	971.47455	-1143.20996	-243.79346	739.54572	-1019.49896	-917.24371	734.08600	-1035.25183	-426.93469	846.91144	-993.76031	-700.54706	848.16687	-1014.98468				-467.82953	457.07141	-879.42267	-615.76868	56.44074	-1232.97461	-405.03162	84.29004	-1007.55682	-686.56995	387.68579	-1152.52795	
92	0.910	-669.34149	1407.78711	-985.22711							-567.12335	1373.09875	-879.73505	-337.24799	1229.06982	-1091.37366	-761.11536	1215.98792	-1098.76160	-554.95764	1156.29395	-980.97949				-270.08112	941.64978	-1154.61169	-847.79779	969.47852	-1131.62549	-247.29095	739.97430	-1010.53229	-920.86877	733.75330	-1022.29333	-429.12805	846.41107	-989.59070	-704.56195	847.88837	-1005.98035				-479.59811	459.17990	-872.01306	-615.90045	56.12429	-1233.50342	-420.82413	81.36609	-982.55280	-689.04077	386.22415	-1146.37537	
